# xmcd CD database file
#
# Track frame offsets:
#	150
#	7549
#	23961
#	40731
#	54993
#	71958
#	86046
#	98778
#	113551
#	124628
#	139259
#
# Disc length: 2039 seconds
#
# Revision: 0
# Processed by: cddbd v1.5.2PL0 Copyright (c) Steve Scherf et al.
# Submitted via: CDex 1.51
#
DISCID=8607f50b
DTITLE=Red Eye Junction - Outlaws and Heroes
DYEAR=2007
DGENRE=Country
TTITLE0=Dr. Cain's Good Fer What Ails Ya'
TTITLE1=My Outlaw Heroes
TTITLE2=Haunted Memories
TTITLE3=Wyoming
TTITLE4=It's All Over
TTITLE5=Bad Habits
TTITLE6=Yesterdays Tears
TTITLE7=Whither
TTITLE8=You Can't Break a Broken Heart
TTITLE9=I Spit On Your Grave
TTITLE10=Anything but Country
EXTD=YEAR: 2007
EXTT0=
EXTT1=
EXTT2=
EXTT3=
EXTT4=
EXTT5=
EXTT6=
EXTT7=
EXTT8=
EXTT9=
EXTT10=
PLAYORDER=
